# xmcd
#
# Track frame offsets:
#	150
#	12569
#	29746
#	41704
#	54057
#	69323
#	78112
#	90490
#	100836
#	114940
#	126164
#	137646
#	147582
#	161710
#	171540
#	184457
#	196462
#	206733
#	219439
#	235586
#
# Disc length: 3379
#
# Revision: 1
# Processed by: cddbd v1.5.1PL0 Copyright (c) Steve Scherf et al.
# Submitted via: OrangeCD 5.2
# Normalized: r0:DSETVAR1
#
DISCID=200d3114
DTITLE=Various Artist - The Country Club CD 2
DYEAR=1900
DGENRE=Country
TTITLE0=Frankie Laine - High Noon
TTITLE1=Ray Price - For the Good Times
TTITLE2=Donna Fargo - Funny Face
TTITLE3=Freddie Fender - Wasted Days and Wasted Nights
TTITLE4=Billie Jo Spears - Blanket on the Ground
TTITLE5=Ferlin Husky - Wings of a Dove
TTITLE6=Sandy Posey - Single Girl
TTITLE7=Carl Perkins - Blue Suede Shoes
TTITLE8=Barbara Fairchild - Teddy Bear Song
TTITLE9=Stonewall Jackson - Waterloo
TTITLE10=Kitty Wells - It Wasn't God That Made Honky Tonk Angels
TTITLE11=Hank Locklin - Please Help Me, I'm Falling
TTITLE12=Don Fardon - Indian Reservation
TTITLE13=Ned Miller - From a jack to a King
TTITLE14=Claude King - Wolverton Mountain
TTITLE15=Skeeter Davis - The End of the World
TTITLE16=Porter Wagoner - The Green Green Grass of Home
TTITLE17=Bobby Bare - Lovin' Her was Easier
TTITLE18=Randy Vanwarmer - Just When I Needed You Most
TTITLE19=Johnny Lee - Lookin' for Love
EXTD=
EXTT0=
EXTT1=
EXTT2=
EXTT3=
EXTT4=
EXTT5=
EXTT6=
EXTT7=
EXTT8=
EXTT9=
EXTT10=
EXTT11=
EXTT12=
EXTT13=
EXTT14=
EXTT15=
EXTT16=
EXTT17=
EXTT18=
EXTT19=
PLAYORDER=
